<svg xmlns="http://www.w3.org/2000/svg" width="183" height="69.412" viewBox="0 0 183 69.412">
    <g id="Group_10781" data-name="Group 10781" transform="translate(6374 2280)">
      <path id="beer" d="M94.278,35.634v.734s2.986.042,1.548-3.254a9.245,9.245,0,0,0-8.251-5.546,16.052,16.052,0,0,0-3.99-6.839,15.673,15.673,0,0,0-22.712.285,8.1,8.1,0,0,0-9.763,11.213,9.242,9.242,0,0,0,1.52,14.919V77.314a8.107,8.107,0,0,0,8.1,8.1H86.18a8.107,8.107,0,0,0,8.1-8.1h0ZM66.513,73.843a2.314,2.314,0,1,1-4.627,0V50.706a2.314,2.314,0,0,1,4.627,0Zm9.255,0a2.314,2.314,0,0,1-4.627,0V50.706a2.314,2.314,0,0,1,4.627,0Zm9.255,0a2.314,2.314,0,1,1-4.627,0V50.706a2.314,2.314,0,0,1,4.627,0Zm2.314-32.392a6.408,6.408,0,0,1-3.86-1.636,2.314,2.314,0,0,0-1.636-.678H64.2A2.314,2.314,0,0,0,62.03,40.66a4.76,4.76,0,0,1-4.772,3.1,4.637,4.637,0,1,1,2.372-8.416,2.314,2.314,0,0,0,2.776-3.7,8.578,8.578,0,0,0-7.173-1.537,3.47,3.47,0,0,1,5.984-3.432A7.426,7.426,0,0,1,61.9,27.82a2.314,2.314,0,0,0,4.614-.252,6.656,6.656,0,0,0-1.556-3.615c-.067-.091-.145-.181-.21-.269a10.95,10.95,0,0,1,7.55-3.057,11.115,11.115,0,0,1,7.987,3.352A11.6,11.6,0,0,1,83.376,34.22a2.314,2.314,0,0,0,1.841,2.706,2.356,2.356,0,0,0,.434.04,2.314,2.314,0,0,0,2.27-1.88,16.163,16.163,0,0,0,.283-2.808,4.627,4.627,0,0,1-.868,9.173Zm6.941-1.636Z" transform="translate(-6422.003 -2295.999)" fill="#fff"/>
      <text id="Byra" transform="translate(-6333 -2258.794)" fill="#fff" font-size="35" font-family="Silom"><tspan x="0" y="34">Byra</tspan></text>
    </g>
  </svg>
  